<svg width="430" height="74" viewBox="0 0 430 74" fill="none" xmlns="http://www.w3.org/2000/svg">
<path d="M417.594 72.9844H417.856L418.005 72.7681C424.823 62.8762 428.601 51.1752 428.641 37.1733L428.641 37.1705C428.601 23.1295 424.823 11.4288 418.006 1.49826L417.857 1.28125H417.594H411.578H410.596L411.174 2.07534C413.781 5.66043 416.153 11.1537 417.878 17.4122C419.601 23.6633 420.668 30.6399 420.687 37.1719C420.668 43.6842 419.601 50.651 417.878 56.8923C416.153 63.1411 413.781 68.6241 411.175 72.1893L410.593 72.9844H411.578H417.594Z" stroke="black"/>
<path d="M378.446 61.9687L378.453 61.9688L378.46 61.9687C381.499 61.9259 383.992 59.4452 383.953 56.3907C383.992 53.3738 381.496 50.8906 378.453 50.8906C375.461 50.8906 372.875 53.3626 372.953 56.3907C372.875 59.4563 375.458 61.926 378.446 61.9687Z" stroke="black"/>
<path d="M357.111 29.7226L357.21 30.0938H357.594H364.156H364.723L364.652 29.5317C364.207 25.9715 362.553 22.9588 359.861 20.8413C357.172 18.7272 353.482 17.5312 349 17.5312C339.496 17.5312 332.797 22.8929 332.797 30.5312C332.797 33.4906 333.832 36.0402 335.837 38.0656C337.832 40.0814 340.76 41.5512 344.512 42.4245L344.512 42.4246L350.917 43.9085C350.917 43.9086 350.917 43.9087 350.917 43.9088C353.284 44.4668 354.93 45.2131 355.978 46.1402C357.005 47.0482 357.484 48.1504 357.484 49.5156C357.484 51.3249 356.634 52.8056 355.057 53.8497C353.462 54.9053 351.109 55.5191 348.144 55.5L348.137 55.5C345.516 55.5191 343.538 55.0391 342.133 54.1043C340.745 53.1801 339.861 51.7743 339.491 49.8135L339.414 49.4062H339H331.969H331.39L331.474 49.9787C332.057 53.9584 333.815 57.0838 336.687 59.2003C339.548 61.3093 343.462 62.3789 348.297 62.3594C353.69 62.3789 357.961 61.0108 360.9 58.6506C363.848 56.2828 365.417 52.9454 365.438 49.1277L365.437 49.1217C365.417 46.0579 364.438 43.5064 362.457 41.4939C360.488 39.4942 357.567 38.0655 353.727 37.1546C353.726 37.1545 353.725 37.1543 353.725 37.1541L347.401 35.5927L347.4 35.5924C344.951 34.9945 343.228 34.2362 342.121 33.324C341.037 32.431 340.535 31.3865 340.516 30.1399C340.555 26.9944 343.887 24.2739 349 24.2344C351.403 24.2539 353.207 24.821 354.513 25.7655C355.816 26.708 356.667 28.0573 357.111 29.7226Z" stroke="black"/>
<path d="M326.609 18.5781V18.0781H326.109H317.703V8.42188V7.92188H317.203H310.406H309.906V8.42188V18.0781H304H303.5V18.5781V24.2031V24.7031H304H309.906L309.906 50.5312L309.906 50.5339C309.927 54.4296 311.485 57.3246 313.799 59.2369C316.1 61.139 319.118 62.0469 322.047 62.0469C324.064 62.0469 325.729 61.8888 326.808 61.729L327.234 61.6658V61.2344V54.9844V54.464L326.714 54.4848C326.417 54.4967 326.051 54.5153 325.653 54.5356C324.713 54.5835 323.592 54.6406 322.75 54.6406C321.358 54.6406 320.116 54.417 319.221 53.636C318.34 52.8666 317.684 51.4557 317.703 48.8161V48.8125V24.7031H326.109H326.609V24.2031V18.5781Z" stroke="black"/>
<path d="M269.781 61.5H270.281V61V35.5312C270.281 31.9637 271.38 29.2268 273.176 27.3842C274.973 25.5416 277.512 24.5469 280.484 24.5469C283.38 24.5469 285.638 25.4836 287.177 27.1585C288.72 28.839 289.594 31.3225 289.594 34.5156V61V61.5H290.094H296.812H297.312V61L297.312 34.0487C297.312 34.0483 297.312 34.048 297.312 34.0476C297.332 28.5718 295.883 24.4292 293.265 21.6531C290.644 18.8734 286.915 17.5312 282.516 17.5312C279.218 17.5312 276.517 18.2612 274.374 19.5725C272.495 20.7225 271.066 22.3063 270.047 24.1932V18.5781V18.0781H269.547H263.062H262.562V18.5781V61V61.5H263.062H269.781Z" stroke="black"/>
<path d="M254.312 42.5156H254.812V42.0156V39.2044C254.832 31.2497 252.455 25.8136 248.873 22.3682C245.297 18.9288 240.582 17.5312 236.031 17.5312C230.129 17.5312 225.184 19.8565 221.722 23.8666C218.265 27.8704 216.312 33.521 216.312 40.1406C216.312 46.7394 218.235 52.3074 221.763 56.2271C225.296 60.1523 230.398 62.3788 236.656 62.3594C245.576 62.3987 252.095 57.9244 254.165 51.2258L254.365 50.5781H253.688H246.5H246.216L246.071 50.8218C244.606 53.2751 241.574 55.4219 236.656 55.4219C232.999 55.4219 229.943 54.2308 227.756 51.9888C225.654 49.8331 224.313 46.6603 224.057 42.5156H254.312ZM247.005 35.8125H224.117C224.778 29.6801 229.204 24.4688 236.031 24.4688C239.394 24.4688 242.118 25.7328 244.01 27.8247C245.814 29.8187 246.888 32.594 247.005 35.8125Z" stroke="black"/>
<path d="M211.141 18.5781V18.0781H210.641H202.234V8.42188V7.92188H201.734H194.938H194.438V8.42188V18.0781H188.531H188.031V18.5781V24.2031V24.7031H188.531H194.438L194.437 50.5312L194.438 50.5339C194.458 54.4296 196.017 57.3246 198.33 59.2369C200.631 61.139 203.649 62.0469 206.578 62.0469C208.595 62.0469 210.26 61.8888 211.339 61.729L211.766 61.6658V61.2344V54.9844V54.464L211.246 54.4848C210.948 54.4967 210.582 54.5153 210.184 54.5356C209.245 54.5835 208.123 54.6406 207.281 54.6406C205.89 54.6406 204.648 54.417 203.753 53.636C202.871 52.8666 202.215 51.4557 202.234 48.8161V48.8125V24.7031H210.641H211.141V24.2031V18.5781Z" stroke="black"/>
<path d="M154.312 61.5H154.812V61V35.5312C154.812 31.9637 155.911 29.2268 157.708 27.3842C159.504 25.5416 162.044 24.5469 165.016 24.5469C167.911 24.5469 170.17 25.4836 171.708 27.1585C173.251 28.839 174.125 31.3225 174.125 34.5156V61V61.5H174.625H181.344H181.844V61L181.844 34.0487C181.844 34.0483 181.844 34.048 181.844 34.0476C181.863 28.5718 180.414 24.4292 177.796 21.6531C175.175 18.8734 171.446 17.5312 167.047 17.5312C163.75 17.5312 161.048 18.2612 158.905 19.5725C157.026 20.7225 155.598 22.3063 154.578 24.1932V18.5781V18.0781H154.078H147.594H147.094V18.5781V61V61.5H147.594H154.312Z" stroke="black"/>
<path d="M99.6719 39.9844C99.6719 46.6637 101.655 52.2682 105.15 56.205C108.649 60.1467 113.632 62.3789 119.547 62.3594C125.443 62.3789 130.397 60.1461 133.868 56.2034C137.333 52.2663 139.285 46.6622 139.266 39.9844C139.285 33.2681 137.333 27.6542 133.868 23.7119C130.397 19.7637 125.443 17.5312 119.547 17.5312C113.632 17.5312 108.649 19.7631 105.149 23.7103C101.654 27.6522 99.6719 33.2665 99.6719 39.9844ZM119.547 55.4219C115.397 55.4219 112.393 53.6388 110.404 50.8421C108.401 48.0261 107.41 44.1533 107.391 39.9844C107.41 35.8353 108.401 31.9419 110.405 29.1007C112.395 26.2785 115.4 24.4688 119.547 24.4688C123.653 24.4688 126.628 26.2767 128.595 29.0984C130.575 31.9399 131.547 35.8343 131.547 39.9844C131.547 44.1543 130.575 48.0282 128.596 50.8443C126.631 53.6405 123.656 55.4219 119.547 55.4219Z" stroke="black"/>
<path d="M85.6983 22.3528L85.7817 22.75H86.1876H93.2189H93.8165L93.711 22.1617C91.5549 10.1435 82.0706 3.15625 70.4064 3.15625C63.0053 3.15625 56.6062 6.00495 52.0676 11.1477C47.5332 16.2857 44.8868 23.677 44.9064 32.7188C44.8868 41.7605 47.5332 49.1518 52.0676 54.2898C56.6062 59.4326 63.0053 62.2812 70.4064 62.2812C82.1088 62.2812 91.6339 55.1772 93.7113 43.3521L93.8144 42.7656H93.2189H86.1876H85.7845L85.699 43.1595C84.0792 50.618 77.6825 54.6798 70.4061 54.7187C65.4251 54.6992 61.0261 52.7732 57.8607 49.092C54.6901 45.4048 52.7228 39.9152 52.7032 32.7187C52.7228 25.5024 54.6903 20.0031 57.8607 16.3162C61.0262 12.635 65.4252 10.7188 70.4064 10.7188C77.6801 10.7188 84.1157 14.8168 85.6983 22.3528Z" stroke="black"/>
<path d="M1.15624 37.1705L1.15625 37.1733C1.19558 51.2143 4.97351 62.9149 11.7909 72.8455L11.9399 73.0625H12.2031H18.2188H19.2006L18.6231 72.2684C16.0158 68.6833 13.6435 63.19 11.9185 56.9316C10.1956 50.6805 9.12892 43.7039 9.10938 37.1719C9.12892 30.6595 10.1956 23.6928 11.9185 17.4514C13.6435 11.2026 16.0156 5.71961 18.6224 2.15449L19.2037 1.35938H18.2188H12.2031H11.9405L11.7914 1.57562C4.97351 11.4675 1.19558 23.1685 1.15624 37.1705Z" stroke="black"/>
</svg>
