<svg width="237" height="74" viewBox="0 0 237 74" fill="none" xmlns="http://www.w3.org/2000/svg">
<path d="M225.25 72.9844H225.513L225.662 72.7681C232.48 62.8762 236.258 51.1752 236.297 37.1733L236.297 37.1705C236.258 23.1295 232.48 11.4288 225.662 1.49826L225.513 1.28125H225.25H219.234H218.252L218.83 2.07534C221.437 5.66043 223.81 11.1537 225.535 17.4122C227.258 23.6633 228.324 30.6399 228.344 37.1719C228.324 43.6842 227.258 50.651 225.535 56.8923C223.81 63.1411 221.438 68.6241 218.831 72.1893L218.249 72.9844H219.234H225.25Z" stroke="black"/>
<path d="M186.102 61.9687L186.109 61.9688L186.116 61.9687C189.155 61.9259 191.648 59.4452 191.609 56.3907C191.649 53.3738 189.153 50.8906 186.109 50.8906C183.117 50.8906 180.531 53.3626 180.609 56.3907C180.531 59.4563 183.114 61.926 186.102 61.9687Z" stroke="black"/>
<path d="M133.422 39.9844C133.422 46.6637 135.405 52.2682 138.9 56.205C142.399 60.1467 147.382 62.3789 153.297 62.3594C159.193 62.3789 164.147 60.1461 167.618 56.2034C171.083 52.2663 173.035 46.6622 173.016 39.9844C173.035 33.2681 171.083 27.6542 167.618 23.7119C164.147 19.7637 159.193 17.5312 153.297 17.5312C147.382 17.5312 142.399 19.7631 138.899 23.7103C135.404 27.6522 133.422 33.2665 133.422 39.9844ZM153.297 55.4219C149.147 55.4219 146.143 53.6388 144.154 50.8421C142.151 48.0261 141.16 44.1533 141.141 39.9844C141.16 35.8353 142.151 31.9419 144.155 29.1007C146.145 26.2785 149.15 24.4688 153.297 24.4688C157.403 24.4688 160.378 26.2767 162.345 29.0984C164.325 31.9399 165.297 35.8343 165.297 39.9844C165.297 44.1543 164.325 48.0282 162.346 50.8443C160.381 53.6405 157.406 55.4219 153.297 55.4219Z" stroke="black"/>
<path d="M130.281 18.5781V18.0781H129.781H120.906V14.2812H120.906L120.906 14.2768C120.887 12.1622 121.388 10.7443 122.358 9.84273C123.337 8.93264 124.894 8.45312 127.203 8.45312C128.034 8.45312 129.218 8.52887 130.639 8.75918L131.219 8.85324V8.26562V2.25V1.83786L130.814 1.75919C129.376 1.47954 127.391 1.28125 125.719 1.28125C121.88 1.28125 118.73 2.34177 116.53 4.34089C114.324 6.34513 113.13 9.24164 113.109 12.794H113.109V12.7969V18.0781H106.812H106.312V18.5781V24.2031V24.7031H106.812H113.109V61V61.5H113.609H120.406H120.906V61V24.7031H129.781H130.281V24.2031V18.5781Z" stroke="black"/>
<path d="M72.9844 61.5H73.4844V61V35.5312C73.4844 31.9637 74.583 29.2268 76.3795 27.3842C78.176 25.5416 80.7154 24.5469 83.6875 24.5469C86.5831 24.5469 88.8414 25.4836 90.3798 27.1585C91.9233 28.839 92.7969 31.3225 92.7969 34.5156V61V61.5H93.2969H100.016H100.516V61L100.516 34.0487C100.516 34.0483 100.516 34.048 100.516 34.0476C100.535 28.5718 99.0862 24.4292 96.4683 21.6531C93.847 18.8734 90.1178 17.5312 85.7188 17.5312C82.4216 17.5312 79.72 18.2612 77.5769 19.5725C75.6976 20.7225 74.2695 22.3063 73.25 24.1932V18.5781V18.0781H72.75H66.2656H65.7656V18.5781V61V61.5H66.2656H72.9844Z" stroke="black"/>
<path d="M55.125 4.4375V3.9375H54.625H47.5938H47.0938V4.4375V61V61.5H47.5938H54.625H55.125V61V4.4375Z" stroke="black"/>
<path d="M1.15624 37.1705L1.15625 37.1733C1.19558 51.2143 4.97351 62.9149 11.7909 72.8455L11.9399 73.0625H12.2031H18.2188H19.2006L18.6231 72.2684C16.0158 68.6833 13.6435 63.19 11.9185 56.9316C10.1956 50.6805 9.12892 43.7039 9.10938 37.1719C9.12892 30.6595 10.1956 23.6928 11.9185 17.4514C13.6435 11.2026 16.0156 5.71961 18.6224 2.15449L19.2037 1.35938H18.2188H12.2031H11.9405L11.7914 1.57562C4.97351 11.4675 1.19558 23.1685 1.15624 37.1705Z" stroke="black"/>
</svg>
